<?xml version='1.0' encoding='utf-8'?>
<svg xmlns="http://www.w3.org/2000/svg" width="1900" height="1100" viewBox="0 0 1900 1100">
<style>
text { font-family: "Pretendard", "Noto Sans KR", "Apple SD Gothic Neo", "Malgun Gothic", Arial, sans-serif; fill: #1f2937; }
.title { font-size: 28px; font-weight: 800; }
.subtitle { font-size: 15px; fill: #6b7280; }
.th { font-size: 15px; font-weight: 800; }
.cell { font-size: 13px; }
.key { font-size: 12px; font-weight: 700; }
.card { font-size: 12px; font-weight: 700; fill: #334155; }
.rel { font-size: 12px; font-weight: 700; fill: #475569; }
.note { font-size: 12px; fill: #475569; }
</style>
<rect x="0" y="0" width="1900" height="1100" fill="#ffffff" />
<text x="40" y="44" class="title" text-anchor="start">Gudit ERD</text><text x="40" y="74" class="subtitle" text-anchor="start">Based on PostgreSQL persisted entities</text><rect x="40" y="120" width="360" height="350" fill="#ffffff" stroke="#a9bbd4" stroke-width="1.6" /><rect x="40" y="120" width="360" height="46" fill="#eef3f8" stroke="#a9bbd4" stroke-width="1.6" /><text x="220.0" y="150" class="th" text-anchor="middle">USERS</text><line x1="145" y1="166" x2="145" y2="470" stroke="#d7e0ea" /><line x1="326" y1="166" x2="326" y2="470" stroke="#d7e0ea" /><rect x="40" y="166" width="360" height="38" fill="#fafcff" /><line x1="40" y1="166" x2="400" y2="166" stroke="#d7e0ea" /><text x="54" y="190" class="cell" text-anchor="start">BIGINT</text><text x="159" y="190" class="cell" text-anchor="start">id</text><text x="336" y="190" class="key" text-anchor="start">PK</text><rect x="40" y="204" width="360" height="38" fill="#ffffff" /><line x1="40" y1="204" x2="400" y2="204" stroke="#d7e0ea" /><text x="54" y="228" class="cell" text-anchor="start">BIGINT</text><text x="159" y="228" class="cell" text-anchor="start">kakao_id</text><text x="336" y="228" class="key" text-anchor="start">UK</text><rect x="40" y="242" width="360" height="38" fill="#fafcff" /><line x1="40" y1="242" x2="400" y2="242" stroke="#d7e0ea" /><text x="54" y="266" class="cell" text-anchor="start">VARCHAR</text><text x="159" y="266" class="cell" text-anchor="start">nickname</text><rect x="40" y="280" width="360" height="38" fill="#ffffff" /><line x1="40" y1="280" x2="400" y2="280" stroke="#d7e0ea" /><text x="54" y="304" class="cell" text-anchor="start">VARCHAR</text><text x="159" y="304" class="cell" text-anchor="start">email</text><rect x="40" y="318" width="360" height="38" fill="#fafcff" /><line x1="40" y1="318" x2="400" y2="318" stroke="#d7e0ea" /><text x="54" y="342" class="cell" text-anchor="start">VARCHAR</text><text x="159" y="342" class="cell" text-anchor="start">role</text><rect x="40" y="356" width="360" height="38" fill="#ffffff" /><line x1="40" y1="356" x2="400" y2="356" stroke="#d7e0ea" /><text x="54" y="380" class="cell" text-anchor="start">VARCHAR</text><text x="159" y="380" class="cell" text-anchor="start">provider</text><rect x="40" y="394" width="360" height="38" fill="#fafcff" /><line x1="40" y1="394" x2="400" y2="394" stroke="#d7e0ea" /><text x="54" y="418" class="cell" text-anchor="start">TIMESTAMP</text><text x="159" y="418" class="cell" text-anchor="start">created_at</text><rect x="40" y="432" width="360" height="38" fill="#ffffff" /><line x1="40" y1="432" x2="400" y2="432" stroke="#d7e0ea" /><text x="54" y="456" class="cell" text-anchor="start">TIMESTAMP</text><text x="159" y="456" class="cell" text-anchor="start">updated_at</text><line x1="40" y1="470" x2="400" y2="470" stroke="#d7e0ea" /><rect x="480" y="120" width="420" height="274" fill="#ffffff" stroke="#a9bbd4" stroke-width="1.6" /><rect x="480" y="120" width="420" height="46" fill="#eef3f8" stroke="#a9bbd4" stroke-width="1.6" /><text x="690.0" y="150" class="th" text-anchor="middle">REFRESH_TOKENS</text><line x1="585" y1="166" x2="585" y2="394" stroke="#d7e0ea" /><line x1="826" y1="166" x2="826" y2="394" stroke="#d7e0ea" /><rect x="480" y="166" width="420" height="38" fill="#fafcff" /><line x1="480" y1="166" x2="900" y2="166" stroke="#d7e0ea" /><text x="494" y="190" class="cell" text-anchor="start">BIGINT</text><text x="599" y="190" class="cell" text-anchor="start">id</text><text x="836" y="190" class="key" text-anchor="start">PK</text><rect x="480" y="204" width="420" height="38" fill="#ffffff" /><line x1="480" y1="204" x2="900" y2="204" stroke="#d7e0ea" /><text x="494" y="228" class="cell" text-anchor="start">BIGINT</text><text x="599" y="228" class="cell" text-anchor="start">user_id</text><text x="836" y="228" class="key" text-anchor="start">FK, UK</text><rect x="480" y="242" width="420" height="38" fill="#fafcff" /><line x1="480" y1="242" x2="900" y2="242" stroke="#d7e0ea" /><text x="494" y="266" class="cell" text-anchor="start">VARCHAR</text><text x="599" y="266" class="cell" text-anchor="start">token_hash</text><text x="836" y="266" class="key" text-anchor="start">UK</text><rect x="480" y="280" width="420" height="38" fill="#ffffff" /><line x1="480" y1="280" x2="900" y2="280" stroke="#d7e0ea" /><text x="494" y="304" class="cell" text-anchor="start">TIMESTAMP</text><text x="599" y="304" class="cell" text-anchor="start">expires_at</text><rect x="480" y="318" width="420" height="38" fill="#fafcff" /><line x1="480" y1="318" x2="900" y2="318" stroke="#d7e0ea" /><text x="494" y="342" class="cell" text-anchor="start">TIMESTAMP</text><text x="599" y="342" class="cell" text-anchor="start">created_at</text><rect x="480" y="356" width="420" height="38" fill="#ffffff" /><line x1="480" y1="356" x2="900" y2="356" stroke="#d7e0ea" /><text x="494" y="380" class="cell" text-anchor="start">TIMESTAMP</text><text x="599" y="380" class="cell" text-anchor="start">updated_at</text><line x1="480" y1="394" x2="900" y2="394" stroke="#d7e0ea" /><rect x="40" y="650" width="360" height="350" fill="#ffffff" stroke="#a9bbd4" stroke-width="1.6" /><rect x="40" y="650" width="360" height="46" fill="#eef3f8" stroke="#a9bbd4" stroke-width="1.6" /><text x="220.0" y="680" class="th" text-anchor="middle">GOODS</text><line x1="145" y1="696" x2="145" y2="1000" stroke="#d7e0ea" /><line x1="326" y1="696" x2="326" y2="1000" stroke="#d7e0ea" /><rect x="40" y="696" width="360" height="38" fill="#fafcff" /><line x1="40" y1="696" x2="400" y2="696" stroke="#d7e0ea" /><text x="54" y="720" class="cell" text-anchor="start">BIGINT</text><text x="159" y="720" class="cell" text-anchor="start">id</text><text x="336" y="720" class="key" text-anchor="start">PK</text><rect x="40" y="734" width="360" height="38" fill="#ffffff" /><line x1="40" y1="734" x2="400" y2="734" stroke="#d7e0ea" /><text x="54" y="758" class="cell" text-anchor="start">VARCHAR</text><text x="159" y="758" class="cell" text-anchor="start">name</text><rect x="40" y="772" width="360" height="38" fill="#fafcff" /><line x1="40" y1="772" x2="400" y2="772" stroke="#d7e0ea" /><text x="54" y="796" class="cell" text-anchor="start">VARCHAR</text><text x="159" y="796" class="cell" text-anchor="start">description</text><rect x="40" y="810" width="360" height="38" fill="#ffffff" /><line x1="40" y1="810" x2="400" y2="810" stroke="#d7e0ea" /><text x="54" y="834" class="cell" text-anchor="start">INT</text><text x="159" y="834" class="cell" text-anchor="start">price</text><rect x="40" y="848" width="360" height="38" fill="#fafcff" /><line x1="40" y1="848" x2="400" y2="848" stroke="#d7e0ea" /><text x="54" y="872" class="cell" text-anchor="start">VARCHAR</text><text x="159" y="872" class="cell" text-anchor="start">image_url</text><rect x="40" y="886" width="360" height="38" fill="#ffffff" /><line x1="40" y1="886" x2="400" y2="886" stroke="#d7e0ea" /><text x="54" y="910" class="cell" text-anchor="start">VARCHAR</text><text x="159" y="910" class="cell" text-anchor="start">status</text><rect x="40" y="924" width="360" height="38" fill="#fafcff" /><line x1="40" y1="924" x2="400" y2="924" stroke="#d7e0ea" /><text x="54" y="948" class="cell" text-anchor="start">TIMESTAMP</text><text x="159" y="948" class="cell" text-anchor="start">created_at</text><rect x="40" y="962" width="360" height="38" fill="#ffffff" /><line x1="40" y1="962" x2="400" y2="962" stroke="#d7e0ea" /><text x="54" y="986" class="cell" text-anchor="start">TIMESTAMP</text><text x="159" y="986" class="cell" text-anchor="start">updated_at</text><line x1="40" y1="1000" x2="400" y2="1000" stroke="#d7e0ea" /><rect x="460" y="540" width="450" height="502" fill="#ffffff" stroke="#a9bbd4" stroke-width="1.6" /><rect x="460" y="540" width="450" height="46" fill="#eef3f8" stroke="#a9bbd4" stroke-width="1.6" /><text x="685.0" y="570" class="th" text-anchor="middle">GOODS_SALES</text><line x1="565" y1="586" x2="565" y2="1042" stroke="#d7e0ea" /><line x1="836" y1="586" x2="836" y2="1042" stroke="#d7e0ea" /><rect x="460" y="586" width="450" height="38" fill="#fafcff" /><line x1="460" y1="586" x2="910" y2="586" stroke="#d7e0ea" /><text x="474" y="610" class="cell" text-anchor="start">BIGINT</text><text x="579" y="610" class="cell" text-anchor="start">id</text><text x="846" y="610" class="key" text-anchor="start">PK</text><rect x="460" y="624" width="450" height="38" fill="#ffffff" /><line x1="460" y1="624" x2="910" y2="624" stroke="#d7e0ea" /><text x="474" y="648" class="cell" text-anchor="start">BIGINT</text><text x="579" y="648" class="cell" text-anchor="start">goods_id</text><text x="846" y="648" class="key" text-anchor="start">FK</text><rect x="460" y="662" width="450" height="38" fill="#fafcff" /><line x1="460" y1="662" x2="910" y2="662" stroke="#d7e0ea" /><text x="474" y="686" class="cell" text-anchor="start">BIGINT</text><text x="579" y="686" class="cell" text-anchor="start">created_by</text><rect x="460" y="700" width="450" height="38" fill="#ffffff" /><line x1="460" y1="700" x2="910" y2="700" stroke="#d7e0ea" /><text x="474" y="724" class="cell" text-anchor="start">INT</text><text x="579" y="724" class="cell" text-anchor="start">initial_stock</text><rect x="460" y="738" width="450" height="38" fill="#fafcff" /><line x1="460" y1="738" x2="910" y2="738" stroke="#d7e0ea" /><text x="474" y="762" class="cell" text-anchor="start">INT</text><text x="579" y="762" class="cell" text-anchor="start">remaining_stock</text><rect x="460" y="776" width="450" height="38" fill="#ffffff" /><line x1="460" y1="776" x2="910" y2="776" stroke="#d7e0ea" /><text x="474" y="800" class="cell" text-anchor="start">INT</text><text x="579" y="800" class="cell" text-anchor="start">max_purchase_quantity</text><rect x="460" y="814" width="450" height="38" fill="#fafcff" /><line x1="460" y1="814" x2="910" y2="814" stroke="#d7e0ea" /><text x="474" y="838" class="cell" text-anchor="start">VARCHAR</text><text x="579" y="838" class="cell" text-anchor="start">status</text><rect x="460" y="852" width="450" height="38" fill="#ffffff" /><line x1="460" y1="852" x2="910" y2="852" stroke="#d7e0ea" /><text x="474" y="876" class="cell" text-anchor="start">TIMESTAMP</text><text x="579" y="876" class="cell" text-anchor="start">start_at</text><rect x="460" y="890" width="450" height="38" fill="#fafcff" /><line x1="460" y1="890" x2="910" y2="890" stroke="#d7e0ea" /><text x="474" y="914" class="cell" text-anchor="start">TIMESTAMP</text><text x="579" y="914" class="cell" text-anchor="start">end_at</text><rect x="460" y="928" width="450" height="38" fill="#ffffff" /><line x1="460" y1="928" x2="910" y2="928" stroke="#d7e0ea" /><text x="474" y="952" class="cell" text-anchor="start">TIMESTAMP</text><text x="579" y="952" class="cell" text-anchor="start">created_at</text><rect x="460" y="966" width="450" height="38" fill="#fafcff" /><line x1="460" y1="966" x2="910" y2="966" stroke="#d7e0ea" /><text x="474" y="990" class="cell" text-anchor="start">TIMESTAMP</text><text x="579" y="990" class="cell" text-anchor="start">updated_at</text><rect x="460" y="1004" width="450" height="38" fill="#ffffff" /><line x1="460" y1="1004" x2="910" y2="1004" stroke="#d7e0ea" /><text x="474" y="1028" class="cell" text-anchor="start">TIMESTAMP</text><text x="579" y="1028" class="cell" text-anchor="start">final_stock_synced_at</text><line x1="460" y1="1042" x2="910" y2="1042" stroke="#d7e0ea" /><rect x="980" y="560" width="380" height="426" fill="#ffffff" stroke="#a9bbd4" stroke-width="1.6" /><rect x="980" y="560" width="380" height="46" fill="#eef3f8" stroke="#a9bbd4" stroke-width="1.6" /><text x="1170.0" y="590" class="th" text-anchor="middle">PURCHASES</text><line x1="1085" y1="606" x2="1085" y2="986" stroke="#d7e0ea" /><line x1="1286" y1="606" x2="1286" y2="986" stroke="#d7e0ea" /><rect x="980" y="606" width="380" height="38" fill="#fafcff" /><line x1="980" y1="606" x2="1360" y2="606" stroke="#d7e0ea" /><text x="994" y="630" class="cell" text-anchor="start">BIGINT</text><text x="1099" y="630" class="cell" text-anchor="start">id</text><text x="1296" y="630" class="key" text-anchor="start">PK</text><rect x="980" y="644" width="380" height="38" fill="#ffffff" /><line x1="980" y1="644" x2="1360" y2="644" stroke="#d7e0ea" /><text x="994" y="668" class="cell" text-anchor="start">BIGINT</text><text x="1099" y="668" class="cell" text-anchor="start">user_id</text><text x="1296" y="668" class="key" text-anchor="start">FK</text><rect x="980" y="682" width="380" height="38" fill="#fafcff" /><line x1="980" y1="682" x2="1360" y2="682" stroke="#d7e0ea" /><text x="994" y="706" class="cell" text-anchor="start">BIGINT</text><text x="1099" y="706" class="cell" text-anchor="start">sale_id</text><text x="1296" y="706" class="key" text-anchor="start">FK</text><rect x="980" y="720" width="380" height="38" fill="#ffffff" /><line x1="980" y1="720" x2="1360" y2="720" stroke="#d7e0ea" /><text x="994" y="744" class="cell" text-anchor="start">INT</text><text x="1099" y="744" class="cell" text-anchor="start">quantity</text><rect x="980" y="758" width="380" height="38" fill="#fafcff" /><line x1="980" y1="758" x2="1360" y2="758" stroke="#d7e0ea" /><text x="994" y="782" class="cell" text-anchor="start">INT</text><text x="1099" y="782" class="cell" text-anchor="start">purchase_price</text><rect x="980" y="796" width="380" height="38" fill="#ffffff" /><line x1="980" y1="796" x2="1360" y2="796" stroke="#d7e0ea" /><text x="994" y="820" class="cell" text-anchor="start">VARCHAR</text><text x="1099" y="820" class="cell" text-anchor="start">status</text><rect x="980" y="834" width="380" height="38" fill="#fafcff" /><line x1="980" y1="834" x2="1360" y2="834" stroke="#d7e0ea" /><text x="994" y="858" class="cell" text-anchor="start">TIMESTAMP</text><text x="1099" y="858" class="cell" text-anchor="start">purchased_at</text><rect x="980" y="872" width="380" height="38" fill="#ffffff" /><line x1="980" y1="872" x2="1360" y2="872" stroke="#d7e0ea" /><text x="994" y="896" class="cell" text-anchor="start">TIMESTAMP</text><text x="1099" y="896" class="cell" text-anchor="start">canceled_at</text><rect x="980" y="910" width="380" height="38" fill="#fafcff" /><line x1="980" y1="910" x2="1360" y2="910" stroke="#d7e0ea" /><text x="994" y="934" class="cell" text-anchor="start">TIMESTAMP</text><text x="1099" y="934" class="cell" text-anchor="start">created_at</text><rect x="980" y="948" width="380" height="38" fill="#ffffff" /><line x1="980" y1="948" x2="1360" y2="948" stroke="#d7e0ea" /><text x="994" y="972" class="cell" text-anchor="start">TIMESTAMP</text><text x="1099" y="972" class="cell" text-anchor="start">updated_at</text><line x1="980" y1="986" x2="1360" y2="986" stroke="#d7e0ea" /><rect x="1430" y="560" width="360" height="426" fill="#ffffff" stroke="#a9bbd4" stroke-width="1.6" /><rect x="1430" y="560" width="360" height="46" fill="#eef3f8" stroke="#a9bbd4" stroke-width="1.6" /><text x="1610.0" y="590" class="th" text-anchor="middle">PAYMENTS</text><line x1="1535" y1="606" x2="1535" y2="986" stroke="#d7e0ea" /><line x1="1716" y1="606" x2="1716" y2="986" stroke="#d7e0ea" /><rect x="1430" y="606" width="360" height="38" fill="#fafcff" /><line x1="1430" y1="606" x2="1790" y2="606" stroke="#d7e0ea" /><text x="1444" y="630" class="cell" text-anchor="start">BIGINT</text><text x="1549" y="630" class="cell" text-anchor="start">id</text><text x="1726" y="630" class="key" text-anchor="start">PK</text><rect x="1430" y="644" width="360" height="38" fill="#ffffff" /><line x1="1430" y1="644" x2="1790" y2="644" stroke="#d7e0ea" /><text x="1444" y="668" class="cell" text-anchor="start">BIGINT</text><text x="1549" y="668" class="cell" text-anchor="start">purchase_id</text><text x="1726" y="668" class="key" text-anchor="start">FK, UK</text><rect x="1430" y="682" width="360" height="38" fill="#fafcff" /><line x1="1430" y1="682" x2="1790" y2="682" stroke="#d7e0ea" /><text x="1444" y="706" class="cell" text-anchor="start">VARCHAR</text><text x="1549" y="706" class="cell" text-anchor="start">order_id</text><text x="1726" y="706" class="key" text-anchor="start">UK</text><rect x="1430" y="720" width="360" height="38" fill="#ffffff" /><line x1="1430" y1="720" x2="1790" y2="720" stroke="#d7e0ea" /><text x="1444" y="744" class="cell" text-anchor="start">VARCHAR</text><text x="1549" y="744" class="cell" text-anchor="start">payment_key</text><text x="1726" y="744" class="key" text-anchor="start">UK</text><rect x="1430" y="758" width="360" height="38" fill="#fafcff" /><line x1="1430" y1="758" x2="1790" y2="758" stroke="#d7e0ea" /><text x="1444" y="782" class="cell" text-anchor="start">INT</text><text x="1549" y="782" class="cell" text-anchor="start">amount</text><rect x="1430" y="796" width="360" height="38" fill="#ffffff" /><line x1="1430" y1="796" x2="1790" y2="796" stroke="#d7e0ea" /><text x="1444" y="820" class="cell" text-anchor="start">VARCHAR</text><text x="1549" y="820" class="cell" text-anchor="start">status</text><rect x="1430" y="834" width="360" height="38" fill="#fafcff" /><line x1="1430" y1="834" x2="1790" y2="834" stroke="#d7e0ea" /><text x="1444" y="858" class="cell" text-anchor="start">TIMESTAMP</text><text x="1549" y="858" class="cell" text-anchor="start">approved_at</text><rect x="1430" y="872" width="360" height="38" fill="#ffffff" /><line x1="1430" y1="872" x2="1790" y2="872" stroke="#d7e0ea" /><text x="1444" y="896" class="cell" text-anchor="start">TIMESTAMP</text><text x="1549" y="896" class="cell" text-anchor="start">canceled_at</text><rect x="1430" y="910" width="360" height="38" fill="#fafcff" /><line x1="1430" y1="910" x2="1790" y2="910" stroke="#d7e0ea" /><text x="1444" y="934" class="cell" text-anchor="start">TIMESTAMP</text><text x="1549" y="934" class="cell" text-anchor="start">created_at</text><rect x="1430" y="948" width="360" height="38" fill="#ffffff" /><line x1="1430" y1="948" x2="1790" y2="948" stroke="#d7e0ea" /><text x="1444" y="972" class="cell" text-anchor="start">TIMESTAMP</text><text x="1549" y="972" class="cell" text-anchor="start">updated_at</text><line x1="1430" y1="986" x2="1790" y2="986" stroke="#d7e0ea" /><rect x="1410" y="100" width="400" height="312" fill="#ffffff" stroke="#8b5cf6" stroke-width="1.6" /><rect x="1410" y="100" width="400" height="46" fill="#f4efff" stroke="#8b5cf6" stroke-width="1.6" /><text x="1610.0" y="130" class="th" text-anchor="middle">OUTBOX_EVENTS</text><line x1="1515" y1="146" x2="1515" y2="412" stroke="#d7e0ea" /><line x1="1736" y1="146" x2="1736" y2="412" stroke="#d7e0ea" /><rect x="1410" y="146" width="400" height="38" fill="#fafcff" /><line x1="1410" y1="146" x2="1810" y2="146" stroke="#d7e0ea" /><text x="1424" y="170" class="cell" text-anchor="start">BIGINT</text><text x="1529" y="170" class="cell" text-anchor="start">id</text><text x="1746" y="170" class="key" text-anchor="start">PK</text><rect x="1410" y="184" width="400" height="38" fill="#ffffff" /><line x1="1410" y1="184" x2="1810" y2="184" stroke="#d7e0ea" /><text x="1424" y="208" class="cell" text-anchor="start">VARCHAR</text><text x="1529" y="208" class="cell" text-anchor="start">event_id</text><text x="1746" y="208" class="key" text-anchor="start">UK</text><rect x="1410" y="222" width="400" height="38" fill="#fafcff" /><line x1="1410" y1="222" x2="1810" y2="222" stroke="#d7e0ea" /><text x="1424" y="246" class="cell" text-anchor="start">VARCHAR</text><text x="1529" y="246" class="cell" text-anchor="start">trace_id</text><rect x="1410" y="260" width="400" height="38" fill="#ffffff" /><line x1="1410" y1="260" x2="1810" y2="260" stroke="#d7e0ea" /><text x="1424" y="284" class="cell" text-anchor="start">VARCHAR</text><text x="1529" y="284" class="cell" text-anchor="start">event_type</text><rect x="1410" y="298" width="400" height="38" fill="#fafcff" /><line x1="1410" y1="298" x2="1810" y2="298" stroke="#d7e0ea" /><text x="1424" y="322" class="cell" text-anchor="start">TEXT</text><text x="1529" y="322" class="cell" text-anchor="start">payload</text><rect x="1410" y="336" width="400" height="38" fill="#ffffff" /><line x1="1410" y1="336" x2="1810" y2="336" stroke="#d7e0ea" /><text x="1424" y="360" class="cell" text-anchor="start">VARCHAR</text><text x="1529" y="360" class="cell" text-anchor="start">status</text><rect x="1410" y="374" width="400" height="38" fill="#fafcff" /><line x1="1410" y1="374" x2="1810" y2="374" stroke="#d7e0ea" /><text x="1424" y="398" class="cell" text-anchor="start">TIMESTAMP</text><text x="1529" y="398" class="cell" text-anchor="start">created_at</text><line x1="1410" y1="412" x2="1810" y2="412" stroke="#d7e0ea" /><line x1="145" y1="166" x2="145" y2="470" style="stroke:#d7e0ea;stroke-width:1" /><line x1="326" y1="166" x2="326" y2="470" style="stroke:#d7e0ea;stroke-width:1" /><rect x="40" y="120" width="360" height="350" fill="none" stroke="#a9bbd4" stroke-width="1.6" /><line x1="585" y1="166" x2="585" y2="394" style="stroke:#d7e0ea;stroke-width:1" /><line x1="826" y1="166" x2="826" y2="394" style="stroke:#d7e0ea;stroke-width:1" /><rect x="480" y="120" width="420" height="274" fill="none" stroke="#a9bbd4" stroke-width="1.6" /><line x1="1515" y1="146" x2="1515" y2="412" style="stroke:#d7e0ea;stroke-width:1" /><line x1="1736" y1="146" x2="1736" y2="412" style="stroke:#d7e0ea;stroke-width:1" /><rect x="1410" y="100" width="400" height="312" fill="none" stroke="#8b5cf6" stroke-width="1.6" /><line x1="145" y1="696" x2="145" y2="1000" style="stroke:#d7e0ea;stroke-width:1" /><line x1="326" y1="696" x2="326" y2="1000" style="stroke:#d7e0ea;stroke-width:1" /><rect x="40" y="650" width="360" height="350" fill="none" stroke="#a9bbd4" stroke-width="1.6" /><line x1="565" y1="586" x2="565" y2="1042" style="stroke:#d7e0ea;stroke-width:1" /><line x1="836" y1="586" x2="836" y2="1042" style="stroke:#d7e0ea;stroke-width:1" /><rect x="460" y="540" width="450" height="502" fill="none" stroke="#a9bbd4" stroke-width="1.6" /><line x1="1085" y1="606" x2="1085" y2="986" style="stroke:#d7e0ea;stroke-width:1" /><line x1="1286" y1="606" x2="1286" y2="986" style="stroke:#d7e0ea;stroke-width:1" /><rect x="980" y="560" width="380" height="426" fill="none" stroke="#a9bbd4" stroke-width="1.6" /><line x1="1535" y1="606" x2="1535" y2="986" style="stroke:#d7e0ea;stroke-width:1" /><line x1="1716" y1="606" x2="1716" y2="986" style="stroke:#d7e0ea;stroke-width:1" /><rect x="1430" y="560" width="360" height="426" fill="none" stroke="#a9bbd4" stroke-width="1.6" /><line x1="400" y1="242" x2="480" y2="242" stroke="#6f8fba" stroke-width="2.4" stroke-linecap="round" /><text x="410" y="234" class="card" text-anchor="start">1</text><text x="470" y="234" class="card" text-anchor="end">0..1</text><line x1="400" y1="810" x2="460" y2="810" stroke="#6f8fba" stroke-width="2.4" stroke-linecap="round" /><text x="410" y="802" class="card" text-anchor="start">1</text><text x="450" y="802" class="card" text-anchor="end">N</text><line x1="910" y1="663.0" x2="980" y2="663.0" stroke="#6f8fba" stroke-width="2.4" stroke-linecap="round" /><text x="920" y="655.0" class="card" text-anchor="start">1</text><text x="970" y="655.0" class="card" text-anchor="end">N</text><line x1="1360" y1="655.4" x2="1430" y2="655.4" stroke="#6f8fba" stroke-width="2.4" stroke-linecap="round" /><text x="1370" y="647.4" class="card" text-anchor="start">1</text><text x="1420" y="647.4" class="card" text-anchor="end">0..1</text><path d="M 299.2 470 L 299.2 500 L 940 500 L 940 625.0 L 980 625.0" fill="none" stroke="#6f8fba" stroke-width="2.4" stroke-linecap="round" stroke-linejoin="round" /><text x="281" y="487" class="card" text-anchor="end">1</text><text x="970" y="617.0" class="card" text-anchor="end">N</text><text x="619.6" y="488" class="rel" text-anchor="middle">purchases</text></svg>